<svg width="24" height="24" xmlns="http://www.w3.org/2000/svg">

 <g>
  <title>background</title>
  <rect fill="none" id="canvas_background" height="402" width="582" y="-1" x="-1"/>
 </g>
 <g>
  <title>Layer 1</title>
  <path fill="#9b9b9b" id="svg_1" d="m20.098065,15.890959l-1.41424,-1.414241c0.634178,-0.641071 1.217084,-1.317465 1.738428,-1.993594c0.130588,-0.169359 0.251259,-0.330946 0.361582,-0.483124c-0.110323,-0.152178 -0.230994,-0.313765 -0.361582,-0.483124c-0.604642,-0.784158 -1.292091,-1.568673 -2.046293,-2.298026c-2.093452,-2.024475 -4.270883,-3.21885 -6.37596,-3.21885c-0.522301,0 -1.049055,0.073527 -1.577877,0.215017l-1.581973,-1.581974c1.032447,-0.411666 2.086909,-0.633043 3.15985,-0.633043c2.727548,0 5.335679,1.430625 7.76629,3.78115c0.829219,0.801897 1.579403,1.658007 2.239801,2.514474c0.398503,0.516817 0.681435,0.923371 0.836344,1.165579l0.3446,0.538797l-0.3446,0.538797c-0.154909,0.242208 -0.437841,0.648762 -0.836344,1.165579c-0.571165,0.740742 -1.209492,1.481216 -1.908026,2.186582l0,0.000001zm-3.092526,2.528793c-1.611246,1.01074 -3.284624,1.580248 -5.005539,1.580248c-2.727548,0 -5.335679,-1.430625 -7.76629,-3.78115c-0.829219,-0.801897 -1.579403,-1.658007 -2.239801,-2.514474c-0.398503,-0.516817 -0.681435,-0.923371 -0.836344,-1.165579l-0.3446,-0.538797l0.3446,-0.538797c0.154909,-0.242208 0.437841,-0.648762 0.836344,-1.165579c0.660398,-0.856467 1.410582,-1.712577 2.239801,-2.514474c0.370609,-0.358398 0.745345,-0.69541 1.124003,-1.009224l-4.06482,-4.064819l1.414214,-1.414214l20,20l-1.414214,1.414214l-4.287354,-4.287355zm-10.225819,-10.225818c-0.387397,0.312408 -0.772942,0.654789 -1.15568,1.024916c-0.754202,0.729353 -1.441651,1.513868 -2.046293,2.298026c-0.130588,0.169359 -0.251259,0.330946 -0.361582,0.483124c0.110323,0.152178 0.230994,0.313765 0.361582,0.483124c0.604642,0.784158 1.292091,1.568673 2.046293,2.298026c2.093452,2.024475 4.270883,3.21885 6.37596,3.21885c1.168167,0 2.358615,-0.367802 3.544629,-1.041157l-1.512662,-1.512662c-0.595513,0.35189 -1.290158,0.553819 -2.031967,0.553819c-2.209139,0 -4,-1.790861 -4,-4c0,-0.741809 0.201929,-1.436454 0.553819,-2.031967l-1.774099,-1.774099zm3.288023,3.288023c-0.044186,0.165226 -0.067743,0.338884 -0.067743,0.518043c0,1.10457 0.89543,2 2,2c0.179159,0 0.352817,-0.023557 0.518043,-0.067743l-2.4503,-2.4503z" fill-rule="evenodd"/>
 </g>
</svg>