<svg width="24" height="24" xmlns="http://www.w3.org/2000/svg">

 <g>
  <title>background</title>
  <rect fill="none" id="canvas_background" height="402" width="582" y="-1" x="-1"/>
 </g>
 <g>
  <title>Layer 1</title>
  <path fill="#9b9b9b" id="svg_1" d="m12,4c2.727548,0 5.335679,1.430625 7.76629,3.78115c0.829219,0.801897 1.579403,1.658007 2.239801,2.514474c0.398503,0.516817 0.681435,0.923371 0.836344,1.165579l0.3446,0.538797l-0.3446,0.538797c-0.154909,0.242208 -0.437841,0.648762 -0.836344,1.165579c-0.660398,0.856467 -1.410582,1.712577 -2.239801,2.514474c-2.430611,2.350525 -5.038742,3.78115 -7.76629,3.78115c-2.727548,0 -5.335679,-1.430625 -7.76629,-3.78115c-0.829219,-0.801897 -1.579403,-1.658007 -2.239801,-2.514474c-0.398503,-0.516817 -0.681435,-0.923371 -0.836344,-1.165579l-0.3446,-0.538797l0.3446,-0.538797c0.154909,-0.242208 0.437841,-0.648762 0.836344,-1.165579c0.660398,-0.856467 1.410582,-1.712577 2.239801,-2.514474c2.430611,-2.350525 5.038742,-3.78115 7.76629,-3.78115zm8.422253,7.516876c-0.604642,-0.784158 -1.292091,-1.568673 -2.046293,-2.298026c-2.093452,-2.024475 -4.270883,-3.21885 -6.37596,-3.21885c-2.105077,0 -4.282508,1.194375 -6.37596,3.21885c-0.754202,0.729353 -1.441651,1.513868 -2.046293,2.298026c-0.130588,0.169359 -0.251259,0.330946 -0.361582,0.483124c0.110323,0.152178 0.230994,0.313765 0.361582,0.483124c0.604642,0.784158 1.292091,1.568673 2.046293,2.298026c2.093452,2.024475 4.270883,3.21885 6.37596,3.21885c2.105077,0 4.282508,-1.194375 6.37596,-3.21885c0.754202,-0.729353 1.441651,-1.513868 2.046293,-2.298026c0.130588,-0.169359 0.251259,-0.330946 0.361582,-0.483124c-0.110323,-0.152178 -0.230994,-0.313765 -0.361582,-0.483124zm-8.422253,4.483124c-2.209139,0 -4,-1.790861 -4,-4c0,-2.209139 1.790861,-4 4,-4c2.209139,0 4,1.790861 4,4c0,2.209139 -1.790861,4 -4,4zm0,-2c1.10457,0 2,-0.89543 2,-2c0,-1.10457 -0.89543,-2 -2,-2c-1.10457,0 -2,0.89543 -2,2c0,1.10457 0.89543,2 2,2z" fill-rule="evenodd"/>
 </g>
</svg>